<?xml version="1.0" standalone="no"?>
<!DOCTYPE svg PUBLIC "-//W3C//DTD SVG 20010904//EN"
 "http://www.w3.org/TR/2001/REC-SVG-20010904/DTD/svg10.dtd">
<svg version="1.0" xmlns="http://www.w3.org/2000/svg"
 width="342.000000pt" height="342.000000pt" viewBox="0 0 342.000000 342.000000"
 preserveAspectRatio="xMidYMid meet">
<metadata>
Created by potrace 1.11, written by Peter Selinger 2001-2013
</metadata>
<g transform="translate(0.000000,342.000000) scale(0.100000,-0.100000)"
fill="#000000" stroke="none">
<path d="M210 3090 c-41 -61 -103 -151 -138 -201 -35 -50 -61 -93 -58 -96 2
-2 521 -6 1153 -7 631 -2 1149 -4 1151 -5 4 -1 12 13 -300 -536 -135 -236
-250 -439 -256 -451 -10 -18 3 -45 98 -204 61 -100 110 -184 110 -187 0 -2 10
-19 23 -38 l23 -34 168 297 c92 163 177 315 190 337 12 22 36 65 53 95 33 60
336 597 469 832 46 81 96 168 110 195 15 26 35 63 45 81 l19 32 -1393 0 -1392
0 -75 -110z"/>
<path d="M3170 2961 c0 -9 -137 -246 -185 -321 -13 -19 -68 -111 -122 -205
-55 -93 -173 -294 -263 -445 -89 -151 -172 -291 -184 -311 -12 -20 -104 -177
-205 -347 -157 -265 -186 -309 -196 -294 -7 9 -114 197 -240 417 -125 220
-235 414 -245 430 -9 17 -31 56 -49 87 l-32 56 -257 -1 c-141 -1 -256 -6 -255
-10 1 -7 236 -404 405 -685 37 -63 68 -116 68 -119 0 -4 11 -21 25 -39 14 -18
29 -41 33 -51 6 -16 372 -633 410 -693 21 -31 38 -61 82 -138 19 -34 38 -62
42 -62 4 0 15 12 24 28 9 15 24 38 34 52 9 14 28 45 42 70 14 25 83 140 153
255 70 116 135 222 144 237 9 15 124 206 257 425 133 219 331 547 441 728 110
182 228 376 262 432 l62 103 -50 86 c-28 47 -51 88 -51 90 0 2 -16 28 -35 58
-19 30 -35 57 -35 60 0 8 -70 116 -75 116 -3 0 -5 -4 -5 -9z"/>
<path d="M43 2642 c-24 -2 -43 -5 -43 -7 0 -2 17 -34 38 -72 22 -37 59 -106
84 -153 193 -361 238 -443 249 -454 5 -6 9 -16 9 -24 0 -8 8 -26 18 -40 11
-15 41 -70 69 -122 46 -88 70 -131 158 -295 18 -33 54 -100 80 -150 26 -49 59
-110 73 -135 13 -25 43 -79 65 -120 64 -121 108 -202 132 -245 12 -22 48 -89
80 -150 32 -60 61 -114 65 -120 4 -5 37 -66 73 -135 36 -69 76 -143 88 -166
l23 -41 233 -1 c135 0 233 4 233 9 0 8 -79 152 -525 949 -54 96 -109 195 -123
220 -13 25 -32 59 -42 75 -10 17 -29 50 -42 75 -14 25 -58 104 -98 175 -40 72
-87 155 -103 185 -16 30 -56 100 -87 155 -31 55 -62 109 -68 121 l-11 21 561
0 562 0 36 64 c20 35 53 96 74 134 47 85 93 169 117 213 18 30 18 32 1 33 -53
2 -1944 3 -1979 1z"/>
</g>
</svg>
